<svg xmlns="http://www.w3.org/2000/svg" viewBox="0 0 640 250" role="img" aria-label="held out accuracy by training arm and seed"><style>svg text{font-family:system-ui,sans-serif;fill:#555;font-size:12px}svg .axis,svg .lab,svg .row,svg .val{fill:#444;font-size:12.5px}svg .grid{stroke:#e6e6e6;stroke-width:1}svg .fit{fill:none;stroke:#2a78d6;stroke-width:2}svg .ref{fill:none;stroke:#9a9a9a;stroke-width:2}svg .jev{stroke:#9a9a9a;stroke-width:2}svg .obs{fill:#2a78d6;stroke:white;stroke-width:2}svg .pro{fill:white;stroke:#2a78d6;stroke-width:2}</style><rect width="100%" height="100%" fill="white"/><line class="grid" x1="170.0" x2="170.0" y1="16" y2="206"/><text class="tick" x="170.0" y="224" text-anchor="middle">80</text><line class="grid" x1="280.5" x2="280.5" y1="16" y2="206"/><text class="tick" x="280.5" y="224" text-anchor="middle">100</text><line class="grid" x1="391.0" x2="391.0" y1="16" y2="206"/><text class="tick" x="391.0" y="224" text-anchor="middle">120</text><line class="grid" x1="501.5" x2="501.5" y1="16" y2="206"/><text class="tick" x="501.5" y="224" text-anchor="middle">140</text><line class="grid" x1="612.0" x2="612.0" y1="16" y2="206"/><text class="tick" x="612.0" y="224" text-anchor="middle">160</text><line class="jev" x1="578.9" x2="578.9" y1="16" y2="206"/><text class="lab" x="572.9" y="28" text-anchor="end">jev 154</text><text class="row" x="158" y="54" text-anchor="end">routing data, frozen</text><circle class="obs" cx="214.2" cy="41" r="5"><title>routing_frozen seed 2901: 88 of 192</title></circle><circle class="obs" cx="236.3" cy="50" r="5"><title>routing_frozen seed 1701: 92 of 192</title></circle><circle class="obs" cx="236.3" cy="59" r="5"><title>routing_frozen seed 4101: 92 of 192</title></circle><text class="val" x="248.3" y="54">88, 92, 92</text><text class="row" x="158" y="110" text-anchor="end">plus rule data, frozen</text><circle class="obs" cx="330.2" cy="97" r="5"><title>mixed_frozen seed 1701: 109 of 192</title></circle><circle class="obs" cx="346.8" cy="106" r="5"><title>mixed_frozen seed 2901: 112 of 192</title></circle><circle class="obs" cx="346.8" cy="115" r="5"><title>mixed_frozen seed 4101: 112 of 192</title></circle><text class="val" x="358.8" y="110">109, 112, 112</text><text class="row" x="158" y="166" text-anchor="end">plus rank 8 lora</text><circle class="obs" cx="545.7" cy="162" r="5"><title>mixed_lora seed 1701: 148 of 192</title></circle><circle class="obs" cx="551.2" cy="162" r="5"><title>mixed_lora seed 2901: 149 of 192</title></circle><circle class="obs" cx="573.3" cy="162" r="5"><title>mixed_lora seed 4101: 153 of 192</title></circle><text class="val" x="585.3" y="166">148, 149, 153</text><text class="axis" x="391.0" y="244" text-anchor="middle">correct of 192 sealed rule questions</text></svg>
